<svg width="32" height="30" viewBox="0 0 32 30" fill="none" xmlns="http://www.w3.org/2000/svg">
<g clip-path="url(#clip0_22_284)">
<path d="M10.307 13.125C10.0352 13.125 9.78357 13.0762 9.55207 12.9785C9.32056 12.8809 9.11925 12.749 8.94813 12.583C8.77702 12.417 8.6361 12.2168 8.52538 11.9824C8.41466 11.748 8.36433 11.5039 8.3744 11.25C8.3744 10.9863 8.42472 10.7422 8.52538 10.5176C8.62603 10.293 8.76192 10.0977 8.93303 9.93164C9.10415 9.76562 9.31049 9.62891 9.55207 9.52148C9.79364 9.41406 10.0453 9.36523 10.307 9.375C10.5788 9.375 10.8304 9.42383 11.0619 9.52148C11.2934 9.61914 11.4947 9.75098 11.6658 9.91699C11.8369 10.083 11.9779 10.2832 12.0886 10.5176C12.1993 10.752 12.2496 10.9961 12.2396 11.25C12.2396 11.5137 12.1892 11.7578 12.0886 11.9824C11.9879 12.207 11.852 12.4023 11.6809 12.5684C11.5098 12.7344 11.3035 12.8711 11.0619 12.9785C10.8203 13.0859 10.5687 13.1348 10.307 13.125ZM21.9025 13.125C21.6307 13.125 21.3791 13.0762 21.1476 12.9785C20.9161 12.8809 20.7148 12.749 20.5437 12.583C20.3725 12.417 20.2316 12.2168 20.1209 11.9824C20.0102 11.748 19.9599 11.5039 19.9699 11.25C19.9699 10.9863 20.0203 10.7422 20.1209 10.5176C20.2216 10.293 20.3574 10.0977 20.5286 9.93164C20.6997 9.76562 20.906 9.62891 21.1476 9.52148C21.3892 9.41406 21.6408 9.36523 21.9025 9.375C22.1743 9.375 22.4259 9.42383 22.6574 9.52148C22.8889 9.61914 23.0902 9.75098 23.2614 9.91699C23.4325 10.083 23.5734 10.2832 23.6841 10.5176C23.7948 10.752 23.8452 10.9961 23.8351 11.25C23.8351 11.5137 23.7848 11.7578 23.6841 11.9824C23.5835 12.207 23.4476 12.4023 23.2765 12.5684C23.1053 12.7344 22.899 12.8711 22.6574 12.9785C22.4159 13.0859 22.1642 13.1348 21.9025 13.125ZM16.1047 0C17.524 0 18.8929 0.175781 20.2115 0.527344C21.5301 0.878906 22.7631 1.38184 23.9106 2.03613C25.0581 2.69043 26.0999 3.47168 27.0359 4.37988C27.972 5.28809 28.7773 6.30371 29.4517 7.42676C30.1261 8.5498 30.6445 9.74609 31.0068 11.0156C31.3692 12.2852 31.5554 13.6133 31.5655 15C31.5655 16.377 31.3843 17.7051 31.0219 18.9844C30.6596 20.2637 30.1412 21.46 29.4668 22.5732C28.7924 23.6865 27.9871 24.6973 27.051 25.6055C26.115 26.5137 25.0681 27.2949 23.9106 27.9492C22.7531 28.6035 21.52 29.1064 20.2115 29.458C18.903 29.8096 17.5341 29.9902 16.1047 30C14.6855 30 13.3166 29.8242 11.998 29.4727C10.6794 29.1211 9.44638 28.6182 8.2989 27.9639C7.15143 27.3096 6.10964 26.5283 5.17355 25.6201C4.23745 24.7119 3.4322 23.6963 2.75781 22.5732C2.08342 21.4502 1.56504 20.2588 1.20268 18.999C0.840321 17.7393 0.654109 16.4062 0.644043 15C0.644043 13.623 0.825223 12.2949 1.18758 11.0156C1.54994 9.73633 2.06832 8.54004 2.74271 7.42676C3.41711 6.31348 4.22235 5.30273 5.15845 4.39453C6.09455 3.48633 7.14136 2.70508 8.2989 2.05078C9.45644 1.39648 10.6844 0.893555 11.9829 0.541992C13.2814 0.19043 14.6553 0.00976562 16.1047 0ZM16.1047 28.125C17.3428 28.125 18.5356 27.9688 19.6831 27.6562C20.8305 27.3438 21.9075 26.9043 22.9141 26.3379C23.9207 25.7715 24.8366 25.083 25.662 24.2725C26.4874 23.4619 27.192 22.5781 27.7758 21.6211C28.3596 20.6641 28.8176 19.6191 29.1497 18.4863C29.4819 17.3535 29.6429 16.1914 29.6329 15C29.6329 13.7988 29.4718 12.6416 29.1497 11.5283C28.8276 10.415 28.3747 9.37012 27.7909 8.39355C27.2071 7.41699 26.4974 6.52832 25.662 5.72754C24.8266 4.92676 23.9156 4.24316 22.9292 3.67676C21.9428 3.11035 20.8658 2.66602 19.6982 2.34375C18.5305 2.02148 17.3327 1.86523 16.1047 1.875C14.8667 1.875 13.6739 2.03125 12.5264 2.34375C11.379 2.65625 10.302 3.0957 9.29539 3.66211C8.28884 4.22852 7.37287 4.91699 6.5475 5.72754C5.72212 6.53809 5.01753 7.42188 4.43373 8.37891C3.84992 9.33594 3.39194 10.3809 3.05978 11.5137C2.72761 12.6465 2.56657 13.8086 2.57663 15C2.57663 16.2012 2.73768 17.3584 3.05978 18.4717C3.38188 19.585 3.83483 20.6299 4.41863 21.6064C5.00243 22.583 5.71205 23.4717 6.5475 24.2725C7.38294 25.0732 8.29387 25.7568 9.2803 26.3232C10.2667 26.8896 11.3437 27.334 12.5113 27.6562C13.6789 27.9785 14.8767 28.1348 16.1047 28.125ZM16.1047 22.5C16.8395 22.5 17.5492 22.4023 18.2336 22.207C18.9181 22.0117 19.5623 21.7334 20.1662 21.3721C20.7701 21.0107 21.3036 20.5713 21.7666 20.0537C22.2296 19.5361 22.6373 18.96 22.9896 18.3252L24.7259 19.1748C24.3132 19.9658 23.8049 20.6836 23.201 21.3281C22.597 21.9727 21.9226 22.5195 21.1778 22.9688C20.4329 23.418 19.6327 23.7646 18.7772 24.0088C17.9216 24.2529 17.0308 24.375 16.1047 24.375C15.1787 24.375 14.2879 24.2529 13.4323 24.0088C12.5768 23.7646 11.7766 23.418 11.0317 22.9688C10.2869 22.5195 9.61246 21.9727 9.00853 21.3281C8.40459 20.6836 7.89628 19.9658 7.48359 19.1748L9.2199 18.3252C9.55207 18.96 9.95469 19.5361 10.4278 20.0537C10.9009 20.5713 11.4394 21.0107 12.0433 21.3721C12.6472 21.7334 13.2864 22.0117 13.9608 22.207C14.6352 22.4023 15.3498 22.5 16.1047 22.5Z" fill="#101010"/>
</g>
<defs>
<clipPath id="clip0_22_284">
<rect width="30.9214" height="30" fill="white" transform="translate(0.644043)"/>
</clipPath>
</defs>
</svg>
