<svg width="36" height="30" viewBox="0 0 36 30" fill="none" xmlns="http://www.w3.org/2000/svg">
<path d="M29.5537 0C32.5894 0 35.0731 2.54357 35.2396 5.74714L35.2484 6.09429V23.9057C35.2484 27.1564 32.8719 29.8114 29.8756 29.9914L29.5537 30H5.89879C2.86309 30 0.379323 27.4564 0.212863 24.2529L0.204102 23.9057V6.09429C0.204102 2.84357 2.58054 0.188571 5.57464 0.00857132L5.89879 0H29.5537ZM29.2251 2.14286H6.22733C4.19915 2.14286 2.53893 3.84214 2.40313 5.99357L2.39437 6.27643V23.7236C2.39437 25.9114 3.97136 27.7029 5.9645 27.8486L6.22733 27.8571H29.2251C31.2533 27.8571 32.9135 26.1579 33.0493 24.0086L33.0581 23.7214V6.27857C33.0581 4.09071 31.4811 2.29929 29.488 2.15357L29.2251 2.14286ZM10.8291 8.57571C12.187 8.57571 13.3435 8.78357 14.2919 9.21643C14.8767 9.48214 15.1111 10.125 14.8176 10.6543C14.6613 10.9137 14.4114 11.1065 14.117 11.1945C13.8227 11.2826 13.5053 11.2596 13.2274 11.13C12.6404 10.8621 11.8432 10.7186 10.8291 10.7186C8.58187 10.7186 6.95231 12.5014 6.95231 15.0043C6.95231 17.4021 8.733 19.2857 10.8291 19.2857C12.1367 19.2857 13.0237 18.5336 13.1508 17.8436L13.1683 17.6721V16.0736L12.3382 16.0714C11.6855 16.0714 11.1554 15.5914 11.1554 15C11.1554 14.475 11.5738 14.0357 12.1257 13.9457L12.3404 13.9286L14.351 13.9307C14.6191 13.9229 14.8816 14.0062 15.0941 14.1664C15.3065 14.3265 15.4557 14.5537 15.5163 14.8093L15.536 15.0021V17.6721C15.536 19.5514 13.5954 21.4286 10.8291 21.4286C7.33561 21.4286 4.58463 18.5186 4.58463 15.0021C4.58463 11.4 7.16258 8.57571 10.8291 8.57571ZM19.9165 8.57143C20.1728 8.57134 20.421 8.65922 20.618 8.81976C20.8149 8.9803 20.948 9.20333 20.9941 9.45L21.0116 9.64286V20.3571C21.0121 20.6249 20.9102 20.8831 20.7258 21.081C20.5414 21.2788 20.288 21.402 20.0155 21.4262C19.7429 21.4504 19.471 21.3738 19.2532 21.2117C19.0355 21.0495 18.8876 20.8135 18.8389 20.55L18.8214 20.3571V9.64286C18.8214 9.3587 18.9367 9.08617 19.1421 8.88524C19.3475 8.68431 19.6261 8.57143 19.9165 8.57143ZM29.7727 8.57143C30.0464 8.57094 30.3103 8.67071 30.5125 8.85109C30.7148 9.03147 30.8406 9.2794 30.8654 9.54605C30.8901 9.81269 30.8119 10.0787 30.6461 10.2918C30.4804 10.5048 30.2391 10.6494 29.9698 10.6971L29.7727 10.7143H26.4873V15H29.7727C30.0464 14.9995 30.3103 15.0993 30.5125 15.2797C30.7148 15.46 30.8406 15.708 30.8654 15.9746C30.8901 16.2413 30.8119 16.5073 30.6461 16.7204C30.4804 16.9334 30.2391 17.078 29.9698 17.1257L29.7727 17.1429H26.4873V20.3571C26.4878 20.6249 26.3858 20.8831 26.2015 21.081C26.0171 21.2788 25.7637 21.402 25.4911 21.4262C25.2186 21.4504 24.9466 21.3738 24.7289 21.2117C24.5111 21.0495 24.3633 20.8135 24.3146 20.55L24.297 20.3571V9.64286C24.297 9.3587 24.4124 9.08617 24.6178 8.88524C24.8232 8.68431 25.1017 8.57143 25.3922 8.57143H29.7727Z" fill="#101010"/>
</svg>
