<svg width="37" height="35" viewBox="0 0 37 35" fill="none" xmlns="http://www.w3.org/2000/svg">
<path fill-rule="evenodd" clip-rule="evenodd" d="M29.7032 5.46875H7.15634C6.85736 5.46875 6.57061 5.58398 6.35919 5.7891C6.14778 5.99422 6.029 6.27242 6.029 6.5625V28.4375C6.029 28.7276 6.14778 29.0058 6.35919 29.2109C6.57061 29.416 6.85736 29.5312 7.15634 29.5312H29.7032C30.0022 29.5312 30.2889 29.416 30.5004 29.2109C30.7118 29.0058 30.8305 28.7276 30.8305 28.4375V6.5625C30.8305 6.27242 30.7118 5.99422 30.5004 5.7891C30.2889 5.58398 30.0022 5.46875 29.7032 5.46875ZM7.15634 2.1875C5.96039 2.1875 4.81341 2.64844 3.96774 3.46891C3.12207 4.28938 2.64697 5.40218 2.64697 6.5625V28.4375C2.64697 29.5978 3.12207 30.7106 3.96774 31.5311C4.81341 32.3516 5.96039 32.8125 7.15634 32.8125H29.7032C30.8992 32.8125 32.0461 32.3516 32.8918 31.5311C33.7375 30.7106 34.2126 29.5978 34.2126 28.4375V6.5625C34.2126 5.40218 33.7375 4.28938 32.8918 3.46891C32.0461 2.64844 30.8992 2.1875 29.7032 2.1875H7.15634ZM27.4485 23.7497L21.8118 17.5L16.2292 23.6906L12.7931 19.6875L9.41103 23.625V26.25H27.4485V23.7497ZM15.0477 17.5C15.9447 17.5 16.8049 17.1543 17.4392 16.5389C18.0735 15.9236 18.4298 15.089 18.4298 14.2188C18.4298 13.3485 18.0735 12.5139 17.4392 11.8986C16.8049 11.2832 15.9447 10.9375 15.0477 10.9375C14.1508 10.9375 13.2905 11.2832 12.6563 11.8986C12.022 12.5139 11.6657 13.3485 11.6657 14.2188C11.6657 15.089 12.022 15.9236 12.6563 16.5389C13.2905 17.1543 14.1508 17.5 15.0477 17.5Z" fill="#101010"/>
</svg>
