<svg width="210" height="202" viewBox="0 0 210 202" fill="none" xmlns="http://www.w3.org/2000/svg">
<path d="M207.92 189C192.69 162.67 169.22 143.79 141.83 134.84C155.378 126.775 165.904 114.485 171.792 99.8579C177.679 85.2311 178.603 69.076 174.42 53.8736C170.238 38.6711 161.181 25.2619 148.64 15.7052C136.098 6.14854 120.767 0.972778 105 0.972778C89.2325 0.972778 73.9011 6.14854 61.36 15.7052C48.819 25.2619 39.7617 38.6711 35.5792 53.8736C31.3966 69.076 32.3201 85.2311 38.2076 99.8579C44.0952 114.485 54.6215 126.775 68.1698 134.84C40.7798 143.78 17.3098 162.66 2.07978 189C1.52127 189.911 1.15081 190.924 0.990266 191.98C0.829722 193.036 0.882341 194.114 1.14502 195.149C1.4077 196.185 1.87512 197.157 2.5197 198.009C3.16427 198.861 3.97295 199.575 4.89803 200.11C5.8231 200.644 6.84582 200.988 7.90586 201.12C8.96589 201.253 10.0418 201.172 11.07 200.882C12.0982 200.592 13.058 200.1 13.8927 199.433C14.7273 198.766 15.42 197.939 15.9298 197C34.7698 164.44 68.0698 145 105 145C141.93 145 175.23 164.44 194.07 197C194.58 197.939 195.272 198.766 196.107 199.433C196.942 200.1 197.901 200.592 198.93 200.882C199.958 201.172 201.034 201.253 202.094 201.12C203.154 200.988 204.176 200.644 205.102 200.11C206.027 199.575 206.835 198.861 207.48 198.009C208.124 197.157 208.592 196.185 208.855 195.149C209.117 194.114 209.17 193.036 209.009 191.98C208.849 190.924 208.478 189.911 207.92 189ZM48.9998 73C48.9998 61.9242 52.2841 51.0972 58.4375 41.8881C64.5908 32.6789 73.3368 25.5012 83.5695 21.2627C93.8022 17.0242 105.062 15.9152 115.925 18.076C126.788 20.2368 136.766 25.5703 144.598 33.402C152.429 41.2337 157.763 51.212 159.924 62.0749C162.085 72.9379 160.976 84.1976 156.737 94.4303C152.499 104.663 145.321 113.409 136.112 119.562C126.903 125.716 116.076 129 105 129C90.1525 128.984 75.9179 123.079 65.4193 112.58C54.9207 102.082 49.0157 87.8472 48.9998 73Z" fill="black"/>
</svg>
