<svg width="38" height="38" viewBox="0 0 38 38" fill="none" xmlns="http://www.w3.org/2000/svg">
<g id="Group 5">
<circle id="Ellipse 15" cx="19" cy="19" r="18" fill="#D9D9D9" stroke="black" stroke-width="2"/>
<path id="Vector" d="M29.9411 29.3125C28.1231 26.0403 25.209 23.8061 21.8327 23.0006C23.437 22.3163 24.7634 21.0732 25.5851 19.4837C26.4068 17.8942 26.6729 16.057 26.338 14.2859C26.003 12.5148 25.0878 10.9198 23.7486 9.77327C22.4094 8.62678 20.7294 8 18.9956 8C17.2618 8 15.5818 8.62678 14.2427 9.77327C12.9035 10.9198 11.9882 12.5148 11.6533 14.2859C11.3183 16.057 11.5844 17.8942 12.4061 19.4837C13.2279 21.0732 14.5542 22.3163 16.1586 23.0006C12.7867 23.8026 9.86816 26.0403 8.05015 29.3125C7.99752 29.4173 7.9858 29.5391 8.01743 29.6527C8.04907 29.7662 8.12161 29.8626 8.2199 29.9218C8.3182 29.9809 8.43465 29.9982 8.54492 29.9701C8.6552 29.942 8.75078 29.8706 8.81169 29.7708C10.962 25.8971 14.7719 23.5838 18.9956 23.5838C23.2193 23.5838 27.0292 25.8971 29.1796 29.7708C29.2182 29.8404 29.2737 29.8983 29.3405 29.9385C29.4073 29.9787 29.4831 29.9999 29.5603 30C29.6377 30.0002 29.7137 29.9789 29.7804 29.9381C29.8813 29.8773 29.9549 29.7772 29.9851 29.6599C30.0152 29.5427 29.9994 29.4177 29.9411 29.3125ZM12.3927 15.7927C12.3927 14.433 12.7799 13.1039 13.5055 11.9734C14.231 10.8429 15.2623 9.96178 16.4688 9.44146C17.6753 8.92115 19.003 8.78501 20.2838 9.05026C21.5646 9.31552 22.7412 9.97025 23.6646 10.9317C24.588 11.8931 25.2169 13.118 25.4717 14.4515C25.7265 15.7851 25.5957 17.1673 25.0959 18.4234C24.5962 19.6796 23.7499 20.7532 22.664 21.5086C21.5782 22.264 20.3016 22.6672 18.9956 22.6672C17.245 22.6651 15.5667 21.9401 14.3289 20.6513C13.091 19.3626 12.3947 17.6153 12.3927 15.7927Z" fill="#1E1E1E" fill-opacity="0.8"/>
</g>
</svg>
